<svg width="300" height="300" viewBox="0 0 300 300" xmlns="http://www.w3.org/2000/svg">
  <defs>
    <linearGradient id="missionGrad" x1="0%" y1="0%" x2="100%" y2="100%">
      <stop offset="0%" style="stop-color:#FF6B35;stop-opacity:1" />
      <stop offset="100%" style="stop-color:#F7931E;stop-opacity:1" />
    </linearGradient>
  </defs>
  <rect width="300" height="300" fill="url(#missionGrad)"/>
  
  <!-- Typewriter illustration -->
  <rect x="50" y="120" width="200" height="120" rx="10" fill="#2c3e50"/>
  <rect x="60" y="130" width="180" height="80" rx="5" fill="#34495e"/>
  <rect x="70" y="140" width="160" height="60" rx="3" fill="#ecf0f1"/>
  
  <!-- Paper -->
  <rect x="80" y="150" width="140" height="40" fill="white"/>
  
  <!-- Text lines -->
  <rect x="90" y="160" width="100" height="2" fill="#2c3e50"/>
  <rect x="90" y="170" width="80" height="2" fill="#2c3e50"/>
  <rect x="90" y="180" width="60" height="2" fill="#2c3e50"/>
  
  <!-- Keys -->
  <circle cx="100" cy="220" r="8" fill="#95a5a6"/>
  <circle cx="120" cy="220" r="8" fill="#95a5a6"/>
  <circle cx="140" cy="220" r="8" fill="#95a5a6"/>
  <circle cx="160" cy="220" r="8" fill="#95a5a6"/>
  <circle cx="180" cy="220" r="8" fill="#95a5a6"/>
  <circle cx="200" cy="220" r="8" fill="#95a5a6"/>
  
  <!-- Target/Goal symbol -->
  <circle cx="150" cy="80" r="25" fill="none" stroke="white" stroke-width="3"/>
  <circle cx="150" cy="80" r="15" fill="none" stroke="white" stroke-width="3"/>
  <circle cx="150" cy="80" r="5" fill="white"/>
</svg>
